<svg width="371" height="329" viewBox="0 0 371 329" fill="none" xmlns="http://www.w3.org/2000/svg">
<path d="M211.823 54.8257C227.887 47.6047 242.437 27.8708 244.696 13.6365C244.993 11.7667 246.806 10.3605 248.655 10.7675C424.669 49.5079 400.046 304.061 215.315 313L104 326C122.291 321.122 160.74 297.739 171.966 273.044C175.777 264.663 183.132 256 192.339 256H208.678C213.069 256 217.537 255.236 221.617 253.614C347.553 203.536 302.446 72.9065 212.098 57.2169C211.029 57.0313 210.834 55.2705 211.823 54.8257Z" fill="black" stroke="#FFFBFB" stroke-width="5"/>
<path d="M105.315 312.5V59.9029C105.315 57.5426 103.282 55.6954 100.932 55.9213L74.3398 58.4774C63.8245 59.4882 53.4849 61.8604 43.5806 65.5346L27.5 71.5L2.83124 82.2053C2.07594 82.5331 1.27749 81.8625 1.50207 81.0704C9.88517 51.5012 48.6473 26.3727 78.5 20.5L139.5 16L200 9L232.545 1.66601C233.944 1.35056 235.207 2.56893 234.88 3.96612C228.208 32.4901 203.084 51.9277 192.594 55.41C192.402 55.4738 192.212 55.5 192.01 55.5H166.315C164.106 55.5 162.315 57.2909 162.315 59.5V256.5C154.315 290.9 120.982 308.167 105.315 312.5Z" fill="white" stroke="black" stroke-width="2"/>
</svg>
